<?xml version="1.0" encoding="utf-8"?>
<!-- Generator: Adobe Illustrator 21.1.0, SVG Export Plug-In . SVG Version: 6.00 Build 0)  -->
<svg version="1.1" xmlns="http://www.w3.org/2000/svg" xmlns:xlink="http://www.w3.org/1999/xlink" x="0px" y="0px"
	 viewBox="0 0 240.9 34.3" style="enable-background:new 0 0 240.9 34.3;" xml:space="preserve">
<style type="text/css">
	.st0{clip-path:url(#SVGID_2_);fill:#6BB1E2;}
	.st1{clip-path:url(#SVGID_4_);fill:#FFFFFF;}
	.st2{fill:#FFFFFF;}
	.st3{display:none;}
	.st4{display:inline;}
	.st5{fill:#6BB1E2;}
	.st6{fill:#12326E;}
</style>
<g id="WHITE">
	<g>
		<g>
			<g>
				<g>
					<defs>
						<rect id="SVGID_1_" y="0" width="240.9" height="34.2"/>
					</defs>
					<clipPath id="SVGID_2_">
						<use xlink:href="#SVGID_1_"  style="overflow:visible;"/>
					</clipPath>
					<path class="st0" d="M121.8,26c2.2,0,4.1,1.8,4.1,4.1c0,2.3-1.9,4.1-4.1,4.1s-4.1-1.8-4.1-4.1C117.6,27.9,119.5,26,121.8,26
						L121.8,26z"/>
				</g>
			</g>
			<g>
				<g>
					<defs>
						<rect id="SVGID_3_" y="0" width="240.9" height="34.2"/>
					</defs>
					<clipPath id="SVGID_4_">
						<use xlink:href="#SVGID_3_"  style="overflow:visible;"/>
					</clipPath>
					<path class="st1" d="M17.8,0c5.4,0,10.1,2.4,13.4,6.2l-5,4.2c-2.1-2.3-5.1-3.7-8.4-3.7c-5.9,0-10.5,4.5-10.5,10.5
						s4.6,10.4,10.5,10.4c3.3,0,6.4-1.4,8.5-3.8l5,4.2c-3.3,3.8-8.1,6.2-13.5,6.2C8,34.2,0,27,0,17.2C0,7.3,8,0,17.8,0L17.8,0z"/>
				</g>
			</g>
		</g>
		<path class="st2" d="M33.4,0.6h7.1v24.2c0,2.2,0.8,3.1,2.7,3.1c0.5,0,1.2,0,1.7-0.2V34c-0.7,0.2-2.1,0.3-3.4,0.3
			c-3.4,0-8.2-1.1-8.2-8.4L33.4,0.6L33.4,0.6z"/>
		<path class="st2" d="M63.8,19c0-2.2-2.3-4-5.2-4c-3.1,0-5.6,1.8-5.8,4H63.8L63.8,19z M45.6,21.7c0-7.6,5.5-12.5,13-12.5
			c7.4,0,12.3,5.4,12.3,12.1c0,0,0,1.2-0.1,2.3H52.7c0.1,2.9,2.6,4.7,6.4,4.7c2.5,0,4.2-0.8,5.8-2.3l4.1,3.9
			c-3.2,3.3-6.7,4.4-10.3,4.4c-7.8,0-13.1-4.9-13.1-12.4V21.7L45.6,21.7z"/>
		<path class="st2" d="M85.6,27.7c3.5,0,6.3-2.6,6.3-6s-2.8-6-6.3-6c-3.4,0-6.1,2.6-6.1,6S82.1,27.7,85.6,27.7L85.6,27.7z M84.3,9.3
			c3.7,0,6.4,1.5,7.1,3.6V9.8h7.1v15.5c0,1.9,0.5,2.7,1.8,2.7c0.3,0,0.8,0,1.2-0.1v5.9c-0.7,0.2-2,0.4-3.2,0.4
			c-1.3,0-2.7-0.2-3.9-0.8c-0.8-0.5-1.7-1.2-2.1-2.6c-1.4,2-3.8,3.5-7.9,3.5c-6.8,0-11.9-5.5-11.9-12.4C72.4,14.8,77.5,9.3,84.3,9.3
			L84.3,9.3z"/>
		<path class="st2" d="M103.6,9.7h7.1V13c1.1-2.4,3.6-3.8,6.9-3.8c0.7,0,1.5,0.1,1.9,0.1V16c-0.7-0.1-1.5-0.2-2.4-0.2
			c-4,0-6.4,2.3-6.4,6.2v11.7h-7.1V9.7L103.6,9.7z"/>
		<path class="st2" d="M144.5,27.4c2.5,0,4.3-1.8,4.3-4s-1.8-3.9-4.3-3.9h-6.3v7.9H144.5L144.5,27.4z M143,13.8
			c2.1,0,3.6-1.5,3.6-3.5c0-1.9-1.5-3.4-3.5-3.4h-4.9v6.9H143L143,13.8z M131.1,0.6h13.2c5.3,0,9.4,3.6,9.4,8.5
			c0,3.2-1.6,5.7-4.2,6.7c4.4,0.8,6.7,4.1,6.7,8.2c0,5.6-4.3,9.8-10.1,9.8h-15L131.1,0.6L131.1,0.6z"/>
		<path class="st2" d="M171.2,27.7c3.5,0,6.3-2.6,6.3-6s-2.8-6-6.3-6c-3.4,0-6.1,2.6-6.1,6C165.1,25.1,167.8,27.7,171.2,27.7
			L171.2,27.7z M169.9,9.3c3.7,0,6.4,1.5,7.1,3.6V9.8h7.1v15.5c0,1.9,0.5,2.7,1.8,2.7c0.3,0,0.8,0,1.2-0.1v5.9
			c-0.7,0.2-2,0.4-3.2,0.4c-1.3,0-2.7-0.2-3.9-0.8c-0.8-0.5-1.7-1.2-2.1-2.6c-1.4,2-3.8,3.5-7.9,3.5c-6.8,0-11.9-5.5-11.9-12.4
			C158,14.8,163.1,9.3,169.9,9.3L169.9,9.3z"/>
		<path class="st2" d="M189.2,9.7h7.1v3c1-2.1,3.6-3.5,6.9-3.5c5.8,0,9.1,3.8,9.1,9.9v6c0,1.8,0.3,2.5,1.6,2.5c0.3,0,0.7,0,0.8,0v6
			c-0.2,0.1-1.2,0.3-3.1,0.3c-3.8,0-6.3-1.8-6.3-6.8V20c0-2.7-1.5-4.5-4.3-4.5c-2.7,0-4.6,1.9-4.6,4.8v13.5h-7.1L189.2,9.7
			L189.2,9.7z"/>
		<polygon class="st2" points="217,0.6 224,0.6 224,18.8 231.9,9.7 240.1,9.7 230.6,20.6 240.9,33.7 232.9,33.7 226,24.8 224,27 
			224,33.7 217,33.7 		"/>
		<path class="st2" d="M238.2,3.3c0.4,0,0.5-0.2,0.5-0.4l0,0c0-0.3-0.2-0.5-0.5-0.5h-0.7v0.9H238.2L238.2,3.3z M236.9,1.8h1.3
			c0.4,0,0.7,0.1,1,0.3c0.2,0.2,0.2,0.4,0.2,0.7l0,0c0,0.5-0.3,0.8-0.7,1l0.7,1.1h-0.8l-0.6-1l0,0h-0.5v1h-0.7L236.9,1.8L236.9,1.8z
			 M240.6,3.4L240.6,3.4c0-1.4-1.1-2.5-2.5-2.5s-2.5,1.2-2.5,2.5l0,0c0,1.4,1.1,2.5,2.5,2.5C239.5,6,240.6,4.8,240.6,3.4L240.6,3.4z
			 M235.2,3.5L235.2,3.5c0-1.6,1.3-2.9,2.9-2.9c1.6,0,2.9,1.3,2.9,2.9l0,0c0,1.5-1.3,2.9-2.9,2.9C236.5,6.3,235.2,5,235.2,3.5
			L235.2,3.5z"/>
	</g>
</g>
<g id="BLUE" class="st3">
	<g class="st4">
		<path class="st5" d="M124.3,26.9c2,0,3.8,1.7,3.8,3.8s-1.7,3.8-3.8,3.8s-3.8-1.7-3.8-3.8S122.3,26.9,124.3,26.9z"/>
		<path class="st6" d="M28.3,3.4c4.9,0,9.2,2.2,12.2,5.6l-4.5,3.8c-1.9-2.1-4.6-3.5-7.7-3.5c-5.3,0-9.6,4.1-9.6,9.5s4.2,9.5,9.6,9.5
			c3.1,0,5.8-1.3,7.7-3.5l4.5,3.8c-3,3.5-7.4,5.6-12.2,5.6c-8.9,0-16.2-6.6-16.2-15.5C12.1,10,19.4,3.4,28.3,3.4z"/>
		<path class="st6" d="M42.5,3.4H49v22.3c0,2,0.8,2.8,2.5,2.8c0.5,0,1.1-0.1,1.6-0.2v5.8c-0.6,0.2-2,0.3-3.1,0.3
			c-3.1,0-7.5-0.9-7.5-7.8L42.5,3.4L42.5,3.4z"/>
		<path class="st6" d="M53.8,22.8c0-7.1,5.1-11.6,12-11.6c6.8,0,11.4,5,11.4,11.2c0,0,0,1.1-0.1,2.1H60.3c0.2,2.7,2.4,4.3,5.9,4.3
			c2.3,0,3.8-0.7,5.4-2.1l3.8,3.6c-2.9,3.1-6.1,4-9.5,4C58.8,34.3,53.9,29.8,53.8,22.8L53.8,22.8L53.8,22.8z M70.5,20.4
			c0-2-2.1-3.7-4.8-3.7c-2.8,0-5.2,1.6-5.3,3.7C60.4,20.4,70.5,20.4,70.5,20.4z"/>
		<path class="st6" d="M89.7,11.5c3.4,0,6,1.3,6.6,3.3v-2.9h6.5v14.3c0,1.8,0.5,2.4,1.6,2.4c0.3,0,0.8-0.1,1.1-0.1V34
			c-0.6,0.2-1.9,0.3-2.9,0.3c-1.2,0-2.5-0.2-3.6-0.8c-0.7-0.5-1.6-1.2-2-2.4c-1.3,1.9-3.5,3.2-7.3,3.2c-6.3,0-11-5-11-11.5
			C78.8,16.6,83.5,11.5,89.7,11.5z M90.9,28.5c3.2,0,5.8-2.4,5.8-5.5s-2.6-5.5-5.8-5.5c-3.1,0-5.6,2.4-5.6,5.5S87.8,28.5,90.9,28.5z
			"/>
		<path class="st6" d="M107.5,11.9h6.5v3c1-2.3,3.4-3.5,6.4-3.5c0.6,0,1.3,0.1,1.7,0.2v6.2c-0.6-0.2-1.3-0.2-2.2-0.2
			c-3.8,0-5.9,2.1-5.9,5.7V34h-6.5L107.5,11.9z"/>
		<path class="st6" d="M132.9,3.4h12.2c4.9,0,8.7,3.3,8.7,7.8c0,2.9-1.4,5.3-3.9,6.1c4,0.7,6.1,3.8,6.1,7.6c0,5.2-3.9,9-9.3,9h-13.8
			L132.9,3.4L132.9,3.4z M144,15.6c2,0,3.3-1.3,3.3-3.2c0-1.8-1.3-3.1-3.2-3.1h-4.5v6.4L144,15.6L144,15.6z M145.4,28.1
			c2.3,0,3.9-1.6,3.9-3.8c0-2-1.6-3.6-4-3.6h-5.8v7.3L145.4,28.1L145.4,28.1z"/>
		<path class="st6" d="M168.8,11.5c3.4,0,6,1.3,6.6,3.3v-2.9h6.5v14.3c0,1.8,0.5,2.4,1.6,2.4c0.3,0,0.8-0.1,1.1-0.1V34
			c-0.6,0.2-1.9,0.3-2.9,0.3c-1.2,0-2.5-0.2-3.6-0.8c-0.7-0.5-1.6-1.2-2-2.4c-1.3,1.9-3.5,3.2-7.3,3.2c-6.3,0-11-5-11-11.5
			C157.8,16.6,162.5,11.5,168.8,11.5z M170,28.5c3.2,0,5.8-2.4,5.8-5.5s-2.6-5.5-5.8-5.5c-3.1,0-5.6,2.4-5.6,5.5
			S166.8,28.5,170,28.5z"/>
		<path class="st6" d="M186.7,11.9h6.5v2.7c0.9-2,3.3-3.2,6.4-3.2c5.4,0,8.4,3.5,8.4,9.2v5.6c0,1.6,0.3,2.4,1.4,2.4
			c0.2,0,0.6-0.1,0.7-0.1V34c-0.2,0.1-1.2,0.3-2.8,0.3c-3.5,0-5.8-1.6-5.8-6.4v-6.6c0-2.5-1.3-4.2-3.9-4.2c-2.4,0-4.2,1.8-4.2,4.4
			V34h-6.5L186.7,11.9L186.7,11.9z"/>
		<path class="st6" d="M212.2,3.4h6.5v16.9l7.2-8.4h7.6l-8.8,10l9.6,12.1H227l-6.4-8.2l-1.8,2V34h-6.5L212.2,3.4L212.2,3.4z"/>
		<g>
			<path class="st6" d="M229.1,3.4L229.1,3.4c0-2.5,2-4.5,4.5-4.5c2.6,0,4.5,2,4.5,4.5l0,0c0,2.4-2,4.5-4.5,4.5
				C231,7.9,229.1,5.9,229.1,3.4z M237.5,3.4L237.5,3.4c0-2.2-1.7-4-4-4c-2.3,0-4,1.8-4,4l0,0c0,2.2,1.7,4,4,4
				C235.8,7.4,237.5,5.6,237.5,3.4z M231.7,0.9h2.1c0.6,0,1.2,0.2,1.5,0.5c0.2,0.2,0.4,0.6,0.4,1l0,0c0,0.8-0.4,1.3-1,1.5l1.2,1.7
				h-1.3l-1-1.6l0,0h-0.8v1.6h-1L231.7,0.9L231.7,0.9z M233.9,3.2c0.5,0,0.8-0.3,0.8-0.7l0,0c0-0.5-0.3-0.7-0.9-0.7h-1v1.4H233.9z"
				/>
		</g>
	</g>
</g>
</svg>
