<?xml version="1.0" encoding="UTF-8"?> <!-- Generator: Adobe Illustrator 16.0.0, SVG Export Plug-In . SVG Version: 6.00 Build 0) --> <svg xmlns="http://www.w3.org/2000/svg" xmlns:xlink="http://www.w3.org/1999/xlink" id="Layer_1" x="0px" y="0px" width="250px" height="250px" viewBox="0 0 250 250" xml:space="preserve"> <g> <circle fill="#067FA6" cx="-162.986" cy="125" r="112.5"></circle> <g id="telescope"> <path fill="#FFFFFF" d="M-67.166,137.755v-25.508c0-2.792-2.285-5.074-5.078-5.074h-76.469c-2.791,0-5.071,2.282-5.071,5.074 v25.508c0,2.785,2.28,5.072,5.071,5.072h76.469C-69.451,142.827-67.166,140.54-67.166,137.755z"></path> <g> <path fill="#FFFFFF" d="M-156.686,112.247c0-0.884,0.147-1.73,0.413-2.525h-44.495c-2.279,0-4.145,1.865-4.145,4.146v22.267 c0,2.278,1.865,4.145,4.145,4.145h44.495c-0.266-0.799-0.413-1.641-0.413-2.523V112.247L-156.686,112.247z"></path> </g> <path fill="#FFFFFF" d="M-207.816,113.868c0-0.545,0.068-1.072,0.188-1.582h-47.029c-2.278,0-4.148,1.867-4.148,4.146v17.132 c0,2.283,1.87,4.148,4.148,4.148h47.029c-0.119-0.508-0.188-1.038-0.188-1.579V113.868z"></path> </g> </g> <circle fill="#067FA6" cx="125" cy="125" r="112.5"></circle> <rect x="-51.604" y="-166.288" fill="#067FA6" width="111.495" height="111.493"></rect> <g> <polygon fill="#D1D3D4" points="106.729,127.62 110.041,149.575 114.948,136.62 "></polygon> <polygon fill="#808285" points="110.041,149.575 163.557,106.484 114.948,136.62 "></polygon> <polygon fill="#FFFFFF" points="197.277,93.289 136.071,159.754 86.355,105.307 "></polygon> <polygon fill="#D1D3D4" points="106.729,127.62 163.557,106.484 114.948,136.62 "></polygon> </g> <path fill="none" stroke="#D1D3D4" stroke-width="4" stroke-linecap="round" stroke-linejoin="round" stroke-miterlimit="10" stroke-dasharray="8,12,2,12" d=" M95.092,150.09c-20.757,10.091-43.403,14.73-64.496,20.999"></path> </svg> 